<svg xmlns="http://www.w3.org/2000/svg" viewBox="0 0 1200 800"><defs><radialGradient id="b"><stop stop-color="#123b61"/><stop offset=".55" stop-color="#071321"/><stop offset="1" stop-color="#02040a"/></radialGradient><radialGradient id="c"><stop stop-color="#fff4a8"/><stop offset=".2" stop-color="#f6c957"/><stop offset="1" stop-color="#39b8ff" stop-opacity="0"/></radialGradient><filter id="gl"><feGaussianBlur stdDeviation="12"/></filter></defs><rect width="1200" height="800" fill="url(#b)"/><circle cx="600" cy="410" r="300" fill="url(#c)" opacity=".25" filter="url(#gl)"/><g fill="none" stroke-linecap="round"><circle cx="600" cy="410" r="230" stroke="#75d9ff" stroke-width="2" opacity=".55"/><circle cx="600" cy="410" r="175" stroke="#f4d06f" stroke-width="2" opacity=".7"/><ellipse cx="600" cy="410" rx="290" ry="105" stroke="#58b9ff" opacity=".5"/><ellipse cx="600" cy="410" rx="290" ry="105" transform="rotate(60 600 410)" stroke="#e8bd55" opacity=".5"/><ellipse cx="600" cy="410" rx="290" ry="105" transform="rotate(-60 600 410)" stroke="#8a78ff" opacity=".45"/><path d="M600 75V745M265 410H935" stroke="#f8d86b" opacity=".55"/><path d="M360 170L840 650M840 170L360 650" stroke="#4bbcff" opacity=".35"/></g><g fill="#ffe68b"><circle cx="600" cy="410" r="24"/><circle cx="600" cy="180" r="9"/><circle cx="600" cy="640" r="9"/><circle cx="390" cy="410" r="8"/><circle cx="810" cy="410" r="8"/></g><g fill="#62cfff" opacity=".75"><circle cx="300" cy="160" r="4"/><circle cx="920" cy="190" r="5"/><circle cx="210" cy="610" r="3"/><circle cx="1010" cy="590" r="4"/></g></svg>