<svg xmlns="http://www.w3.org/2000/svg" viewBox="0 0 1600 900" preserveAspectRatio="xMidYMid slice">
<defs>
  <radialGradient id="base" cx="50%" cy="46%" r="75%">
    <stop offset="0%" stop-color="#0a0714"/>
    <stop offset="45%" stop-color="#080513"/>
    <stop offset="100%" stop-color="#05040d"/>
  </radialGradient>
  <radialGradient id="goldTop" cx="50%" cy="0%" r="60%">
    <stop offset="0%" stop-color="#d4af37" stop-opacity="0.22"/>
    <stop offset="55%" stop-color="#7a5e12" stop-opacity="0.06"/>
    <stop offset="100%" stop-color="#000000" stop-opacity="0"/>
  </radialGradient>
  <radialGradient id="purpleBottom" cx="50%" cy="108%" r="62%">
    <stop offset="0%" stop-color="#3d1f5c" stop-opacity="0.4"/>
    <stop offset="55%" stop-color="#2a1640" stop-opacity="0.12"/>
    <stop offset="100%" stop-color="#000000" stop-opacity="0"/>
  </radialGradient>
  <radialGradient id="goldL" cx="8%" cy="32%" r="38%">
    <stop offset="0%" stop-color="#caa030" stop-opacity="0.16"/>
    <stop offset="100%" stop-color="#000000" stop-opacity="0"/>
  </radialGradient>
  <radialGradient id="goldR" cx="93%" cy="72%" r="40%">
    <stop offset="0%" stop-color="#7a1320" stop-opacity="0.14"/>
    <stop offset="100%" stop-color="#000000" stop-opacity="0"/>
  </radialGradient>
  <radialGradient id="centerDark" cx="50%" cy="48%" r="58%">
    <stop offset="0%" stop-color="#04030a" stop-opacity="0.96"/>
    <stop offset="42%" stop-color="#05040d" stop-opacity="0.8"/>
    <stop offset="78%" stop-color="#05040d" stop-opacity="0.25"/>
    <stop offset="100%" stop-color="#05040d" stop-opacity="0"/>
  </radialGradient>
</defs>
<rect width="1600" height="900" fill="url(#base)"/>
<rect width="1600" height="900" fill="url(#goldTop)"/>
<rect width="1600" height="900" fill="url(#purpleBottom)"/>
<rect width="1600" height="900" fill="url(#goldL)"/>
<rect width="1600" height="900" fill="url(#goldR)"/>
<g><circle cx="1454.7" cy="398.2" r="1.45" fill="#ffffff" opacity="0.42"/><circle cx="1230.2" cy="159.8" r="1.30" fill="#ffffff" opacity="0.36"/><circle cx="847.6" cy="402.4" r="0.69" fill="#f6e27a" opacity="0.11"/><circle cx="34.7" cy="354.7" r="1.43" fill="#ffffff" opacity="0.38"/><circle cx="1536.2" cy="277.6" r="0.56" fill="#f6e27a" opacity="0.47"/><circle cx="671.2" cy="702.3" r="0.32" fill="#ffffff" opacity="0.28"/><circle cx="442.6" cy="646.3" r="0.75" fill="#f6e27a" opacity="0.34"/><circle cx="1450.4" cy="581.9" r="0.85" fill="#ffffff" opacity="0.55"/><circle cx="1524.2" cy="111.6" r="1.68" fill="#f6e27a" opacity="0.51"/><circle cx="1077.9" cy="103.3" r="0.90" fill="#ffffff" opacity="0.28"/><circle cx="527.3" cy="301.1" r="0.44" fill="#f6e27a" opacity="0.19"/><circle cx="1126.7" cy="662.2" r="0.35" fill="#ffffff" opacity="0.28"/><circle cx="1388.7" cy="398.4" r="1.40" fill="#ffffff" opacity="0.46"/><circle cx="876.2" cy="834.0" r="0.41" fill="#ffffff" opacity="0.30"/><circle cx="1577.4" cy="29.2" r="1.13" fill="#ffffff" opacity="0.51"/><circle cx="1565.4" cy="839.0" r="0.58" fill="#ffffff" opacity="0.36"/><circle cx="1391.1" cy="249.9" r="1.50" fill="#f6e27a" opacity="0.38"/><circle cx="1449.5" cy="895.1" r="1.20" fill="#ffffff" opacity="0.62"/><circle cx="1221.2" cy="756.3" r="0.75" fill="#f6e27a" opacity="0.47"/><circle cx="42.2" cy="882.7" r="0.56" fill="#ffffff" opacity="0.41"/><circle cx="1581.1" cy="576.3" r="0.60" fill="#f6e27a" opacity="0.62"/><circle cx="274.1" cy="407.1" r="0.53" fill="#ffffff" opacity="0.24"/><circle cx="1123.8" cy="655.9" r="0.44" fill="#ffffff" opacity="0.36"/><circle cx="1268.9" cy="601.4" r="1.00" fill="#ffffff" opacity="0.31"/><circle cx="235.8" cy="60.4" r="0.56" fill="#ffffff" opacity="0.31"/><circle cx="1514.7" cy="865.3" r="1.46" fill="#ffffff" opacity="0.61"/><circle cx="348.9" cy="388.8" r="0.88" fill="#ffffff" opacity="0.29"/><circle cx="1296.5" cy="124.6" r="0.55" fill="#f6e27a" opacity="0.35"/><circle cx="1339.1" cy="672.4" r="0.61" fill="#ffffff" opacity="0.33"/><circle cx="27.3" cy="494.1" r="1.17" fill="#f6e27a" opacity="0.37"/><circle cx="1029.5" cy="33.0" r="0.82" fill="#ffffff" opacity="0.41"/><circle cx="1415.9" cy="300.6" r="1.00" fill="#ffffff" opacity="0.29"/><circle cx="231.6" cy="357.2" r="1.69" fill="#b9a7ff" opacity="0.42"/><circle cx="4.2" cy="352.3" r="0.74" fill="#b9a7ff" opacity="0.58"/><circle cx="553.9" cy="888.8" r="0.56" fill="#ffffff" opacity="0.24"/><circle cx="930.4" cy="70.7" r="0.62" fill="#ffffff" opacity="0.35"/><circle cx="1348.8" cy="490.7" r="1.61" fill="#ffffff" opacity="0.31"/><circle cx="967.8" cy="146.3" r="0.56" fill="#ffffff" opacity="0.27"/><circle cx="1548.9" cy="199.5" r="0.52" fill="#ffffff" opacity="0.62"/><circle cx="270.4" cy="126.7" r="1.01" fill="#ffffff" opacity="0.37"/><circle cx="1028.3" cy="218.1" r="0.71" fill="#b9a7ff" opacity="0.22"/><circle cx="828.2" cy="820.4" r="0.60" fill="#f6e27a" opacity="0.33"/><circle cx="923.0" cy="103.0" r="0.61" fill="#ffffff" opacity="0.27"/><circle cx="1329.5" cy="556.5" r="1.55" fill="#ffffff" opacity="0.25"/><circle cx="1511.7" cy="764.8" r="0.59" fill="#ffffff" opacity="0.57"/><circle cx="210.8" cy="473.5" r="1.11" fill="#ffffff" opacity="0.28"/><circle cx="1127.7" cy="871.4" r="0.88" fill="#f6e27a" opacity="0.47"/><circle cx="1276.8" cy="164.1" r="1.17" fill="#ffffff" opacity="0.32"/><circle cx="890.9" cy="437.9" r="0.75" fill="#ffffff" opacity="0.13"/><circle cx="247.4" cy="726.3" r="1.53" fill="#ffffff" opacity="0.51"/><circle cx="1568.5" cy="690.1" r="1.62" fill="#ffffff" opacity="0.57"/><circle cx="1004.9" cy="371.9" r="0.43" fill="#ffffff" opacity="0.19"/><circle cx="64.2" cy="666.6" r="0.92" fill="#ffffff" opacity="0.36"/><circle cx="402.7" cy="318.2" r="0.74" fill="#ffffff" opacity="0.31"/><circle cx="833.3" cy="534.6" r="0.72" fill="#f6e27a" opacity="0.15"/><circle cx="282.8" cy="733.3" r="0.70" fill="#ffffff" opacity="0.50"/><circle cx="1172.2" cy="19.6" r="0.57" fill="#ffffff" opacity="0.34"/><circle cx="1564.5" cy="95.1" r="1.42" fill="#ffffff" opacity="0.40"/><circle cx="1066.7" cy="554.2" r="0.36" fill="#f6e27a" opacity="0.23"/><circle cx="451.3" cy="877.2" r="0.90" fill="#f6e27a" opacity="0.39"/><circle cx="1207.0" cy="30.7" r="1.33" fill="#ffffff" opacity="0.31"/><circle cx="364.3" cy="746.8" r="0.79" fill="#f6e27a" opacity="0.46"/><circle cx="1306.3" cy="136.4" r="2.70" fill="#ffffff" opacity="0.32"/><circle cx="270.9" cy="373.3" r="1.27" fill="#b9a7ff" opacity="0.46"/><circle cx="46.3" cy="820.2" r="1.36" fill="#f6e27a" opacity="0.59"/><circle cx="406.7" cy="598.8" r="1.23" fill="#f6e27a" opacity="0.32"/><circle cx="1054.0" cy="586.5" r="0.42" fill="#f6e27a" opacity="0.24"/><circle cx="1294.9" cy="528.1" r="1.34" fill="#ffffff" opacity="0.34"/><circle cx="1318.5" cy="445.3" r="0.77" fill="#f6e27a" opacity="0.44"/><circle cx="776.6" cy="670.1" r="0.64" fill="#ffffff" opacity="0.14"/><circle cx="970.8" cy="33.2" r="1.00" fill="#ffffff" opacity="0.37"/><circle cx="1488.9" cy="463.5" r="0.79" fill="#ffffff" opacity="0.34"/><circle cx="349.5" cy="348.3" r="0.72" fill="#f6e27a" opacity="0.41"/><circle cx="1046.4" cy="410.8" r="0.43" fill="#ffffff" opacity="0.18"/><circle cx="508.1" cy="398.8" r="0.71" fill="#f6e27a" opacity="0.24"/><circle cx="1364.5" cy="178.8" r="3.23" fill="#ffffff" opacity="0.28"/><circle cx="1337.1" cy="840.1" r="0.70" fill="#ffffff" opacity="0.50"/><circle cx="57.7" cy="367.6" r="0.68" fill="#ffffff" opacity="0.51"/><circle cx="8.6" cy="525.2" r="2.56" fill="#ffffff" opacity="0.36"/><circle cx="936.4" cy="81.8" r="0.44" fill="#ffffff" opacity="0.22"/><circle cx="1457.4" cy="139.1" r="0.72" fill="#ffffff" opacity="0.50"/><circle cx="835.1" cy="877.6" r="1.03" fill="#ffffff" opacity="0.22"/><circle cx="25.8" cy="161.0" r="1.04" fill="#ffffff" opacity="0.43"/><circle cx="781.3" cy="180.7" r="0.68" fill="#ffffff" opacity="0.20"/><circle cx="627.9" cy="385.1" r="0.49" fill="#f6e27a" opacity="0.21"/><circle cx="363.2" cy="196.1" r="1.11" fill="#ffffff" opacity="0.39"/><circle cx="490.7" cy="567.4" r="0.37" fill="#f6e27a" opacity="0.20"/><circle cx="156.2" cy="475.3" r="1.64" fill="#f6e27a" opacity="0.46"/><circle cx="313.2" cy="536.8" r="0.57" fill="#f6e27a" opacity="0.44"/><circle cx="538.3" cy="159.5" r="0.70" fill="#ffffff" opacity="0.19"/><circle cx="1409.7" cy="292.1" r="1.02" fill="#f6e27a" opacity="0.46"/><circle cx="1505.3" cy="182.2" r="0.91" fill="#ffffff" opacity="0.36"/><circle cx="1413.2" cy="709.1" r="1.34" fill="#b9a7ff" opacity="0.42"/><circle cx="813.8" cy="748.7" r="0.46" fill="#b9a7ff" opacity="0.25"/><circle cx="1221.1" cy="547.0" r="0.86" fill="#b9a7ff" opacity="0.32"/><circle cx="797.0" cy="472.3" r="0.58" fill="#ffffff" opacity="0.12"/><circle cx="896.3" cy="861.6" r="1.32" fill="#ffffff" opacity="0.34"/><circle cx="998.5" cy="644.1" r="0.62" fill="#ffffff" opacity="0.28"/><circle cx="118.8" cy="865.9" r="0.73" fill="#ffffff" opacity="0.44"/><circle cx="538.5" cy="879.0" r="1.22" fill="#f6e27a" opacity="0.43"/><circle cx="1002.6" cy="520.9" r="0.62" fill="#ffffff" opacity="0.25"/><circle cx="263.8" cy="410.4" r="1.68" fill="#ffffff" opacity="0.29"/><circle cx="249.9" cy="681.3" r="1.19" fill="#ffffff" opacity="0.51"/><circle cx="249.4" cy="237.0" r="1.62" fill="#ffffff" opacity="0.34"/><circle cx="1467.9" cy="691.1" r="1.27" fill="#ffffff" opacity="0.44"/><circle cx="1320.5" cy="414.0" r="1.00" fill="#ffffff" opacity="0.43"/><circle cx="424.0" cy="74.4" r="1.07" fill="#ffffff" opacity="0.30"/><circle cx="599.4" cy="440.3" r="0.43" fill="#ffffff" opacity="0.13"/><circle cx="424.9" cy="794.1" r="0.69" fill="#ffffff" opacity="0.35"/><circle cx="267.6" cy="578.0" r="1.57" fill="#f6e27a" opacity="0.38"/><circle cx="371.2" cy="702.8" r="1.27" fill="#ffffff" opacity="0.45"/><circle cx="930.9" cy="414.5" r="0.73" fill="#ffffff" opacity="0.17"/><circle cx="862.8" cy="7.3" r="0.64" fill="#ffffff" opacity="0.30"/><circle cx="1176.0" cy="348.4" r="0.76" fill="#ffffff" opacity="0.31"/><circle cx="1159.2" cy="330.6" r="0.76" fill="#ffffff" opacity="0.30"/><circle cx="98.4" cy="757.3" r="0.79" fill="#f6e27a" opacity="0.60"/><circle cx="546.8" cy="716.6" r="0.43" fill="#ffffff" opacity="0.33"/><circle cx="1149.7" cy="853.8" r="1.14" fill="#ffffff" opacity="0.34"/><circle cx="227.9" cy="882.7" r="2.90" fill="#ffffff" opacity="0.51"/><circle cx="1289.2" cy="277.8" r="1.08" fill="#ffffff" opacity="0.44"/><circle cx="1419.0" cy="212.6" r="0.71" fill="#ffffff" opacity="0.37"/><circle cx="100.8" cy="560.1" r="3.25" fill="#ffffff" opacity="0.47"/><circle cx="1590.7" cy="892.3" r="1.00" fill="#ffffff" opacity="0.62"/><circle cx="1060.0" cy="847.2" r="1.40" fill="#f6e27a" opacity="0.43"/><circle cx="267.2" cy="748.6" r="1.17" fill="#b9a7ff" opacity="0.51"/><circle cx="716.3" cy="263.6" r="0.89" fill="#f6e27a" opacity="0.20"/><circle cx="1311.2" cy="832.7" r="1.63" fill="#ffffff" opacity="0.47"/><circle cx="877.6" cy="828.3" r="0.59" fill="#ffffff" opacity="0.26"/><circle cx="1494.4" cy="100.1" r="1.10" fill="#f6e27a" opacity="0.54"/><circle cx="349.4" cy="135.9" r="1.17" fill="#ffffff" opacity="0.26"/><circle cx="179.3" cy="579.7" r="1.37" fill="#ffffff" opacity="0.45"/><circle cx="733.7" cy="800.3" r="0.33" fill="#ffffff" opacity="0.27"/><circle cx="154.9" cy="116.7" r="1.17" fill="#ffffff" opacity="0.42"/><circle cx="1185.1" cy="15.4" r="0.78" fill="#b9a7ff" opacity="0.38"/><circle cx="186.1" cy="426.3" r="1.47" fill="#f6e27a" opacity="0.39"/><circle cx="219.3" cy="550.2" r="2.28" fill="#f6e27a" opacity="0.32"/><circle cx="319.2" cy="16.7" r="0.55" fill="#ffffff" opacity="0.45"/><circle cx="14.0" cy="557.4" r="1.43" fill="#ffffff" opacity="0.47"/><circle cx="1577.1" cy="124.1" r="1.64" fill="#ffffff" opacity="0.70"/><circle cx="272.1" cy="221.5" r="1.31" fill="#ffffff" opacity="0.40"/><circle cx="249.3" cy="134.0" r="0.89" fill="#ffffff" opacity="0.43"/><circle cx="531.1" cy="695.6" r="0.65" fill="#f6e27a" opacity="0.34"/><circle cx="240.0" cy="211.9" r="0.93" fill="#b9a7ff" opacity="0.49"/><circle cx="105.5" cy="587.6" r="2.49" fill="#ffffff" opacity="0.36"/><circle cx="262.4" cy="214.8" r="0.85" fill="#ffffff" opacity="0.45"/><circle cx="1004.8" cy="331.5" r="0.61" fill="#ffffff" opacity="0.22"/><circle cx="1118.7" cy="375.1" r="0.32" fill="#ffffff" opacity="0.18"/><circle cx="1359.3" cy="578.8" r="0.75" fill="#ffffff" opacity="0.37"/><circle cx="1528.9" cy="90.5" r="1.04" fill="#ffffff" opacity="0.66"/><circle cx="1175.6" cy="882.9" r="1.04" fill="#ffffff" opacity="0.42"/><circle cx="1380.9" cy="896.2" r="1.68" fill="#ffffff" opacity="0.51"/><circle cx="62.7" cy="452.1" r="0.79" fill="#f6e27a" opacity="0.38"/><circle cx="1424.5" cy="126.0" r="0.88" fill="#b9a7ff" opacity="0.42"/><circle cx="1001.4" cy="441.7" r="0.72" fill="#b9a7ff" opacity="0.16"/><circle cx="171.9" cy="834.6" r="0.57" fill="#ffffff" opacity="0.38"/><circle cx="661.1" cy="166.0" r="0.40" fill="#b9a7ff" opacity="0.20"/><circle cx="1178.8" cy="532.8" r="0.58" fill="#ffffff" opacity="0.23"/><circle cx="403.9" cy="598.5" r="1.52" fill="#ffffff" opacity="0.40"/><circle cx="1079.3" cy="839.2" r="0.64" fill="#ffffff" opacity="0.37"/><circle cx="90.1" cy="462.3" r="0.85" fill="#ffffff" opacity="0.45"/><circle cx="296.6" cy="836.0" r="1.65" fill="#ffffff" opacity="0.28"/><circle cx="635.8" cy="285.7" r="1.37" fill="#ffffff" opacity="0.26"/><circle cx="2.4" cy="562.0" r="1.37" fill="#ffffff" opacity="0.54"/><circle cx="464.7" cy="501.1" r="0.73" fill="#ffffff" opacity="0.30"/><circle cx="894.5" cy="230.0" r="0.61" fill="#ffffff" opacity="0.16"/><circle cx="29.9" cy="75.5" r="1.38" fill="#ffffff" opacity="0.37"/><circle cx="744.3" cy="737.2" r="0.32" fill="#ffffff" opacity="0.17"/><circle cx="1182.9" cy="708.7" r="1.09" fill="#ffffff" opacity="0.41"/><circle cx="393.5" cy="771.9" r="1.10" fill="#ffffff" opacity="0.27"/><circle cx="35.7" cy="34.1" r="1.52" fill="#ffffff" opacity="0.61"/><circle cx="230.4" cy="0.2" r="0.78" fill="#ffffff" opacity="0.39"/><circle cx="600.9" cy="735.6" r="0.44" fill="#ffffff" opacity="0.26"/><circle cx="67.7" cy="15.3" r="0.58" fill="#ffffff" opacity="0.56"/><circle cx="1471.7" cy="375.7" r="1.05" fill="#ffffff" opacity="0.30"/><circle cx="1359.9" cy="511.6" r="0.55" fill="#b9a7ff" opacity="0.27"/><circle cx="671.9" cy="341.7" r="0.64" fill="#ffffff" opacity="0.19"/><circle cx="398.4" cy="374.0" r="0.56" fill="#ffffff" opacity="0.38"/><circle cx="1372.6" cy="154.9" r="0.95" fill="#ffffff" opacity="0.40"/><circle cx="748.0" cy="68.6" r="0.69" fill="#f6e27a" opacity="0.34"/><circle cx="484.2" cy="577.0" r="0.50" fill="#ffffff" opacity="0.21"/><circle cx="1548.2" cy="6.1" r="1.32" fill="#b9a7ff" opacity="0.66"/><circle cx="978.8" cy="669.6" r="0.63" fill="#ffffff" opacity="0.17"/><circle cx="1442.4" cy="857.4" r="1.49" fill="#f6e27a" opacity="0.44"/><circle cx="385.9" cy="21.7" r="0.73" fill="#f6e27a" opacity="0.43"/><circle cx="78.1" cy="762.0" r="0.82" fill="#b9a7ff" opacity="0.54"/><circle cx="802.6" cy="517.7" r="0.48" fill="#ffffff" opacity="0.14"/><circle cx="1491.0" cy="830.1" r="1.54" fill="#ffffff" opacity="0.62"/><circle cx="351.1" cy="899.9" r="1.64" fill="#f6e27a" opacity="0.48"/><circle cx="1540.3" cy="708.6" r="0.69" fill="#ffffff" opacity="0.50"/><circle cx="996.8" cy="45.1" r="1.39" fill="#ffffff" opacity="0.37"/><circle cx="260.6" cy="709.1" r="1.68" fill="#ffffff" opacity="0.29"/><circle cx="632.1" cy="676.2" r="0.69" fill="#b9a7ff" opacity="0.21"/><circle cx="1057.7" cy="405.8" r="0.75" fill="#ffffff" opacity="0.21"/><circle cx="1426.4" cy="774.0" r="1.48" fill="#ffffff" opacity="0.41"/><circle cx="619.0" cy="749.5" r="0.39" fill="#ffffff" opacity="0.30"/><circle cx="169.1" cy="149.2" r="0.71" fill="#ffffff" opacity="0.37"/><circle cx="723.4" cy="730.8" r="0.33" fill="#f6e27a" opacity="0.20"/><circle cx="1159.5" cy="345.6" r="0.77" fill="#ffffff" opacity="0.25"/><circle cx="1264.4" cy="820.6" r="0.93" fill="#f6e27a" opacity="0.31"/><circle cx="708.0" cy="118.6" r="0.50" fill="#ffffff" opacity="0.34"/><circle cx="931.2" cy="290.4" r="0.67" fill="#f6e27a" opacity="0.17"/><circle cx="1472.8" cy="819.5" r="1.68" fill="#b9a7ff" opacity="0.47"/><circle cx="1269.7" cy="550.8" r="1.69" fill="#ffffff" opacity="0.37"/><circle cx="1553.3" cy="635.4" r="1.07" fill="#ffffff" opacity="0.59"/><circle cx="1207.6" cy="354.0" r="0.59" fill="#f6e27a" opacity="0.24"/><circle cx="1460.7" cy="344.4" r="1.53" fill="#ffffff" opacity="0.53"/><circle cx="1540.4" cy="764.6" r="1.41" fill="#ffffff" opacity="0.61"/><circle cx="64.9" cy="561.9" r="0.53" fill="#ffffff" opacity="0.38"/><circle cx="1490.6" cy="889.4" r="1.05" fill="#ffffff" opacity="0.67"/><circle cx="59.3" cy="371.9" r="1.37" fill="#f6e27a" opacity="0.57"/><circle cx="827.0" cy="123.0" r="0.38" fill="#ffffff" opacity="0.30"/><circle cx="667.8" cy="375.2" r="0.68" fill="#ffffff" opacity="0.15"/><circle cx="349.5" cy="37.3" r="0.70" fill="#ffffff" opacity="0.33"/><circle cx="578.4" cy="395.9" r="0.42" fill="#f6e27a" opacity="0.17"/><circle cx="1422.0" cy="461.8" r="3.52" fill="#ffffff" opacity="0.47"/><circle cx="1482.8" cy="498.1" r="0.74" fill="#b9a7ff" opacity="0.31"/><circle cx="1385.2" cy="406.7" r="1.25" fill="#ffffff" opacity="0.32"/><circle cx="408.3" cy="403.5" r="0.52" fill="#ffffff" opacity="0.23"/><circle cx="93.5" cy="184.2" r="1.58" fill="#ffffff" opacity="0.56"/><circle cx="810.7" cy="279.5" r="0.71" fill="#ffffff" opacity="0.22"/><circle cx="34.6" cy="448.0" r="1.63" fill="#ffffff" opacity="0.55"/><circle cx="1424.0" cy="600.4" r="0.57" fill="#ffffff" opacity="0.43"/><circle cx="257.5" cy="825.1" r="1.70" fill="#ffffff" opacity="0.56"/><circle cx="629.3" cy="315.5" r="1.53" fill="#ffffff" opacity="0.18"/><circle cx="1342.3" cy="124.7" r="2.97" fill="#ffffff" opacity="0.39"/><circle cx="1002.3" cy="128.5" r="0.43" fill="#ffffff" opacity="0.27"/><circle cx="223.4" cy="758.3" r="1.25" fill="#ffffff" opacity="0.37"/><circle cx="582.7" cy="762.6" r="0.47" fill="#ffffff" opacity="0.34"/><circle cx="478.8" cy="203.4" r="0.41" fill="#ffffff" opacity="0.32"/><circle cx="1267.9" cy="416.1" r="0.97" fill="#ffffff" opacity="0.31"/><circle cx="877.4" cy="191.7" r="0.39" fill="#ffffff" opacity="0.22"/><circle cx="1327.4" cy="486.3" r="1.75" fill="#ffffff" opacity="0.37"/><circle cx="227.2" cy="84.3" r="1.48" fill="#ffffff" opacity="0.39"/><circle cx="1578.7" cy="158.8" r="0.84" fill="#b9a7ff" opacity="0.51"/><circle cx="613.1" cy="59.2" r="1.24" fill="#ffffff" opacity="0.36"/><circle cx="401.1" cy="406.4" r="0.77" fill="#ffffff" opacity="0.37"/><circle cx="692.0" cy="639.2" r="0.50" fill="#ffffff" opacity="0.14"/><circle cx="1079.2" cy="412.5" r="0.42" fill="#ffffff" opacity="0.21"/><circle cx="644.0" cy="573.2" r="0.46" fill="#ffffff" opacity="0.15"/><circle cx="1571.1" cy="634.2" r="1.35" fill="#ffffff" opacity="0.64"/><circle cx="5.5" cy="534.8" r="1.05" fill="#ffffff" opacity="0.64"/><circle cx="4.2" cy="412.1" r="0.69" fill="#b9a7ff" opacity="0.56"/><circle cx="451.2" cy="452.8" r="0.51" fill="#f6e27a" opacity="0.25"/><circle cx="1572.0" cy="140.5" r="1.19" fill="#ffffff" opacity="0.63"/><circle cx="1100.9" cy="812.1" r="1.55" fill="#f6e27a" opacity="0.29"/><circle cx="1203.8" cy="519.4" r="0.37" fill="#ffffff" opacity="0.28"/><circle cx="131.3" cy="241.8" r="1.34" fill="#f6e27a" opacity="0.53"/><circle cx="238.8" cy="200.2" r="1.14" fill="#f6e27a" opacity="0.52"/><circle cx="230.9" cy="432.9" r="1.24" fill="#ffffff" opacity="0.49"/><circle cx="117.5" cy="619.6" r="0.68" fill="#ffffff" opacity="0.46"/><circle cx="946.4" cy="309.5" r="1.30" fill="#ffffff" opacity="0.20"/><circle cx="1518.1" cy="337.5" r="1.02" fill="#ffffff" opacity="0.32"/><circle cx="366.9" cy="225.3" r="2.41" fill="#ffffff" opacity="0.27"/><circle cx="101.7" cy="777.4" r="2.62" fill="#f6e27a" opacity="0.53"/><circle cx="526.8" cy="513.0" r="0.35" fill="#ffffff" opacity="0.28"/><circle cx="1146.2" cy="830.1" r="1.11" fill="#ffffff" opacity="0.24"/><circle cx="1309.6" cy="427.4" r="0.58" fill="#ffffff" opacity="0.35"/><circle cx="252.6" cy="731.2" r="0.88" fill="#b9a7ff" opacity="0.42"/><circle cx="1363.7" cy="292.7" r="3.39" fill="#f6e27a" opacity="0.39"/><circle cx="1240.5" cy="543.4" r="1.66" fill="#ffffff" opacity="0.39"/><circle cx="1569.7" cy="346.5" r="1.31" fill="#b9a7ff" opacity="0.39"/><circle cx="174.8" cy="807.7" r="0.89" fill="#ffffff" opacity="0.42"/><circle cx="489.8" cy="400.8" r="0.37" fill="#ffffff" opacity="0.27"/><circle cx="1147.7" cy="576.9" r="0.46" fill="#b9a7ff" opacity="0.29"/><circle cx="924.6" cy="276.1" r="0.71" fill="#ffffff" opacity="0.19"/><circle cx="343.5" cy="541.9" r="0.50" fill="#ffffff" opacity="0.38"/><circle cx="289.4" cy="773.9" r="0.58" fill="#ffffff" opacity="0.35"/><circle cx="1256.8" cy="373.7" r="2.50" fill="#ffffff" opacity="0.38"/><circle cx="544.0" cy="167.1" r="0.73" fill="#ffffff" opacity="0.27"/><circle cx="264.4" cy="364.9" r="1.38" fill="#ffffff" opacity="0.45"/></g>
<rect width="1600" height="900" fill="url(#centerDark)"/>
</svg>