<svg xmlns="http://www.w3.org/2000/svg" viewBox="0 0 649.41 1000" data-glyph-id="heglyph:05E1"><path d="M333.5 811.72Q255.37 811.72 195.8 777.29Q136.23 742.87 102.29 680.62Q68.36 618.36 66.89 535.35L66.41 504.1Q66.41 477.25 73.73 447.22Q81.05 417.19 93.02 390.82Q104.98 364.45 118.65 348.34Q120.61 346.39 122.31 344.19Q124.02 341.99 125.98 340.53L125 338.09Q111.82 340.53 90.09 345.9Q68.36 351.27 55.18 354.69L24.41 235.06Q63.96 223.34 113.04 214.55Q162.11 205.76 213.62 201.12Q265.14 196.48 311.52 196.48Q404.79 196.48 469.24 228.71Q533.69 260.94 566.89 323.93Q600.1 386.91 600.1 480.18L600.1 535.35Q600.1 618.36 566.89 680.62Q533.69 742.87 473.88 777.29Q414.06 811.72 333.5 811.72ZM333.01 675.49Q363.28 675.49 385.99 657.91Q408.69 640.33 421.39 609.08Q434.08 577.83 434.08 536.33L434.08 483.11Q434.08 433.3 422.61 399.61Q411.13 365.92 388.67 348.83Q366.21 331.74 333.5 331.74Q300.78 331.74 278.32 350.05Q255.86 368.36 244.38 404Q232.91 439.65 232.42 492.38L232.42 536.33Q232.42 577.83 245.12 609.08Q257.81 640.33 280.52 657.91Q303.22 675.49 333.01 675.49Z"/></svg>
